<?xml version="1.0" encoding="UTF-8"?>
<svg id="flag_Cleveland_OH" width="900" height="600" version="1.1" viewBox="0 0 900 600" xmlns="http://www.w3.org/2000/svg" xmlns:cc="http://creativecommons.org/ns#" xmlns:dc="http://purl.org/dc/elements/1.1/" xmlns:rdf="http://www.w3.org/1999/02/22-rdf-syntax-ns#">
 <g id="layer1" transform="translate(-.556019 -1.13337)">
  <g id="g3627" transform="translate(.55602 269.133)">
   <path id="rect2243" d="m300-268h300v600h-300z" fill="#ffffff"/>
   <path id="rect2262" d="m0-268h300v600h-300z" fill="#eb2d2e" stroke-width="0"/>
   <path id="rect3235" d="m600-268h300v600h-300z" fill="#000080" stroke-width="0"/>
  </g>
 </g>
 <g id="layer2" transform="translate(-.556019 -1.13337)">
  <g id="g2998" fill="#000000">
   <g id="text2849" transform="scale(.968778 1.03223)">
    <path id="path4090" d="m344.811 423.262h3.07843c1.76511 1e-5 2.95585 0.0771 3.57225 0.23114 0.88254 0.21715 1.604 0.66368 2.16436 1.33959 0.56034 0.67594 0.84052 1.52522 0.84053 2.54785-1e-5 1.02966-0.27319 1.87894-0.81952 2.54786-0.54635 0.66892-1.29932 1.11896-2.25892 1.35009-0.70045 0.16812-2.01027 0.25217-3.92947 0.25216h-1.10319v7.18652h-1.54447zm1.54447 1.50244v5.2533l2.61614 0.0315c1.05766 1e-5 1.83165-0.0963 2.32196-0.28893 0.4903-0.19261 0.87554-0.50431 1.15573-0.93509 0.28017-0.43076 0.42025-0.91231 0.42026-1.44466-1e-5 -0.51831-0.14009-0.99286-0.42026-1.42364-0.28019-0.43076-0.64967-0.7372-1.10845-0.91933-0.45879-0.1821-1.21001-0.27316-2.25366-0.27317z"/>
    <path id="path4092" d="m357.64 423.262h3.07844c1.71607 1e-5 2.8788 0.0701 3.48819 0.21013 0.91757 0.21015 1.66353 0.66018 2.2379 1.3501 0.57435 0.68994 0.86153 1.53923 0.86155 2.54785-2e-5 0.84054-0.19789 1.5795-0.59363 2.21689-0.39576 0.63741-0.96136 1.11896-1.69681 1.44466-0.73547 0.32571-1.75111 0.49207-3.04692 0.49906l5.55799 7.18652h-1.9122l-5.54748-7.18652h-0.88256v7.18652h-1.54447zm1.54447 1.51295v5.2533l2.65817 0.021c1.02964 1e-5 1.79137-0.0981 2.28519-0.29418 0.4938-0.19612 0.87904-0.50956 1.15573-0.94034 0.27666-0.43076 0.415-0.91232 0.41501-1.44466-1e-5 -0.51832-0.1401-0.98936-0.42027-1.41314-0.28018-0.42375-0.64791-0.72669-1.10319-0.90882-0.4553-0.1821-1.21177-0.27316-2.26943-0.27317z"/>
    <path id="path4094" d="m377.991 422.874c2.33946 2e-5 4.29719 0.78101 5.87319 2.34297 1.57598 1.562 2.36397 3.4847 2.36399 5.76813-2e-5 2.26243-0.78626 4.18163-2.35873 5.75762-1.5725 1.57599-3.48996 2.36398-5.75237 2.36398-2.29044 0-4.22366-0.78449-5.79964-2.35348-1.576-1.56898-2.36399-3.46717-2.36399-5.69457 0-1.48493 0.35898-2.86129 1.07693-4.1291 0.71795-1.26778 1.69681-2.26066 2.93659-2.97862 1.23978-0.71794 2.58112-1.07691 4.02403-1.07693zm0.0735 1.51295c-1.14173 2e-5 -2.22391 0.2977-3.24654 0.89306-1.02265 0.59539-1.82115 1.39739-2.39551 2.40602-0.57436 1.00864-0.86154 2.13284-0.86154 3.37262 0 1.83515 0.63565 3.38488 1.90695 4.64917 1.27129 1.26429 2.8035 1.89644 4.59664 1.89644 1.19774 0 2.30619-0.29068 3.32534-0.87205 1.01913-0.58136 1.81412-1.37636 2.385-2.385 0.57084-1.00863 0.85627-2.12933 0.85629-3.36211-2e-5 -1.22576-0.28545-2.33421-0.85629-3.32534-0.57088-0.99111-1.37463-1.78436-2.41127-2.37975-1.03666-0.59536-2.13635-0.89304-3.29907-0.89306z"/>
    <path id="path4096" d="m404.237 425.857-1.19776 1.13471c-0.86155-0.84752-1.8054-1.49017-2.83153-1.92796-1.02615-0.43776-2.02603-0.65665-2.99963-0.65666-1.21177 1e-5 -2.36575 0.2977-3.46193 0.89306-1.09619 0.59538-1.94547 1.40264-2.54785 2.42177-0.60238 1.01915-0.90357 2.09607-0.90357 3.23078 0 1.16274 0.3117 2.26768 0.93509 3.31483 0.62339 1.04716 1.48493 1.87018 2.58463 2.46905 1.09968 0.59888 2.30443 0.89832 3.61427 0.89832 1.58998 0 2.93483-0.44828 4.03453-1.34485 1.09968-0.89656 1.75109-2.05929 1.95423-3.48819h-4.9276v-1.49194h6.66119c-0.014 2.38851-0.72322 4.28495-2.12759 5.68933-1.40439 1.40438-3.28332 2.10657-5.63679 2.10657-2.8578 0-5.12022-0.97361-6.78727-2.92083-1.2818-1.49894-1.92271-3.23253-1.9227-5.20077-1e-5 -1.46391 0.36773-2.82627 1.10319-4.08707 0.73546-1.26078 1.74409-2.24665 3.0259-2.95761 1.2818-0.71093 2.73171-1.0664 4.34973-1.06642 1.30982 2e-5 2.54259 0.23642 3.69833 0.7092 1.15571 0.47281 2.28342 1.23103 3.38313 2.27468z"/>
    <path id="path4098" d="m408.198 423.262h3.07843c1.71607 1e-5 2.8788 0.0701 3.48819 0.21013 0.91757 0.21015 1.66354 0.66018 2.23791 1.3501 0.57435 0.68994 0.86153 1.53923 0.86154 2.54785-1e-5 0.84054-0.19788 1.5795-0.59362 2.21689-0.39576 0.63741-0.96137 1.11896-1.69682 1.44466-0.73547 0.32571-1.75111 0.49207-3.04691 0.49906l5.55799 7.18652h-1.9122l-5.54749-7.18652h-0.88255v7.18652h-1.54447zm1.54447 1.51295v5.2533l2.65817 0.021c1.02964 1e-5 1.79137-0.0981 2.28518-0.29418 0.49381-0.19612 0.87905-0.50956 1.15573-0.94034 0.27666-0.43076 0.415-0.91232 0.41501-1.44466-1e-5 -0.51832-0.1401-0.98936-0.42026-1.41314-0.28019-0.42375-0.64792-0.72669-1.1032-0.90882-0.45529-0.1821-1.21176-0.27316-2.26942-0.27317z"/>
    <path id="path4100" d="m421.194 423.262h8.85707v1.52345h-7.3126v4.83304h7.24956v1.51295h-7.24956v6.06231h7.24956v1.52346h-8.79403z"/>
    <path id="path4102" d="m431.144 435.839 1.31333-0.788c0.92457 1.70208 1.99274 2.55311 3.20451 2.55311 0.51832 0 1.00513-0.12083 1.46042-0.36248 0.45528-0.24165 0.80199-0.5656 1.04015-0.97186 0.23814-0.40625 0.35722-0.83702 0.35723-1.29231-1e-5 -0.51832-0.17512-1.02614-0.52533-1.52346-0.48332-0.68642-1.36587-1.51294-2.64767-2.47956-1.28881-0.9736-2.09082-1.67754-2.40601-2.11182-0.54635-0.72845-0.81952-1.51645-0.81952-2.36399 0-0.67241 0.1611-1.28529 0.48331-1.83866 0.3222-0.55333 0.77573-0.98935 1.3606-1.30807 0.58487-0.31868 1.22052-0.47803 1.90695-0.47805 0.72845 2e-5 1.40963 0.18038 2.04354 0.54109 0.63389 0.36074 1.30456 1.02441 2.01201 1.991l-1.26079 0.9561c-0.58137-0.77047-1.07694-1.27829-1.48669-1.52345-0.40976-0.24514-0.85629-0.36772-1.33959-0.36773-0.62339 1e-5 -1.13296 0.18913-1.52871 0.56735-0.39575 0.37825-0.59363 0.84405-0.59362 1.39738-1e-5 0.33622 0.07 0.66193 0.21013 0.97711 0.14008 0.31521 0.39575 0.65843 0.76698 1.02965 0.20313 0.19613 0.86854 0.71096 1.99626 1.54447 1.33783 0.98763 2.25541 1.86668 2.75273 2.63716 0.4973 0.77049 0.74596 1.54447 0.74597 2.32196-1e-5 1.12071-0.42553 2.09432-1.27656 2.92083-0.85104 0.82652-1.88594 1.23978-3.1047 1.23978-0.93859 0-1.78963-0.2504-2.5531-0.75122-0.76348-0.50081-1.46743-1.33959-2.11183-2.51633z"/>
    <path id="path4104" d="m441.861 435.839 1.31332-0.788c0.92458 1.70208 1.99275 2.55311 3.20452 2.55311 0.51832 0 1.00512-0.12083 1.46042-0.36248 0.45527-0.24165 0.80199-0.5656 1.04015-0.97186 0.23814-0.40625 0.35722-0.83702 0.35722-1.29231 0-0.51832-0.17511-1.02614-0.52533-1.52346-0.48331-0.68642-1.36586-1.51294-2.64766-2.47956-1.28881-0.9736-2.09082-1.67754-2.40601-2.11182-0.54635-0.72845-0.81952-1.51645-0.81952-2.36399 0-0.67241 0.1611-1.28529 0.48331-1.83866 0.3222-0.55333 0.77573-0.98935 1.3606-1.30807 0.58487-0.31868 1.22051-0.47803 1.90695-0.47805 0.72845 2e-5 1.40963 0.18038 2.04353 0.54109 0.63389 0.36074 1.30457 1.02441 2.01202 1.991l-1.26079 0.9561c-0.58138-0.77047-1.07694-1.27829-1.48669-1.52345-0.40976-0.24514-0.85629-0.36772-1.33959-0.36773-0.6234 1e-5 -1.13297 0.18913-1.52871 0.56735-0.39575 0.37825-0.59363 0.84405-0.59362 1.39738-1e-5 0.33622 0.07 0.66193 0.21013 0.97711 0.14008 0.31521 0.39574 0.65843 0.76698 1.02965 0.20312 0.19613 0.86854 0.71096 1.99625 1.54447 1.33784 0.98763 2.25541 1.86668 2.75273 2.63716 0.49731 0.77049 0.74596 1.54447 0.74597 2.32196-1e-5 1.12071-0.42552 2.09432-1.27655 2.92083-0.85104 0.82652-1.88594 1.23978-3.1047 1.23978-0.93859 0-1.78963-0.2504-2.5531-0.75122-0.76349-0.50081-1.46743-1.33959-2.11183-2.51633z"/>
   </g>
   <g id="text2849-1" transform="scale(.968778 1.03223)">
    <path id="path4107" d="m474.944 422.993h3.07844c1.7651 1e-5 2.95585 0.0771 3.57224 0.23114 0.88255 0.21716 1.604 0.66369 2.16436 1.3396 0.56034 0.67593 0.84052 1.52522 0.84053 2.54785-1e-5 1.02965-0.27318 1.87894-0.81952 2.54785-0.54635 0.66893-1.29932 1.11896-2.25892 1.3501-0.70044 0.16811-2.01026 0.25216-3.92946 0.25216h-1.1032v7.18651h-1.54447zm1.54447 1.50244v5.2533l2.61615 0.0315c1.05765 1e-5 1.83164-0.0963 2.32196-0.28893 0.49029-0.19261 0.87554-0.5043 1.15572-0.93508 0.28017-0.43077 0.42026-0.91232 0.42027-1.44466-1e-5 -0.51832-0.1401-0.99286-0.42027-1.42365-0.28018-0.43076-0.64967-0.7372-1.10844-0.91933-0.4588-0.1821-1.21002-0.27315-2.25367-0.27317z"/>
    <path id="path4109" d="m487.773 422.993h3.07844c1.71607 1e-5 2.8788 0.0701 3.48819 0.21013 0.91757 0.21015 1.66354 0.66018 2.23791 1.3501 0.57435 0.68995 0.86153 1.53923 0.86154 2.54785-1e-5 0.84054-0.19789 1.5795-0.59362 2.21689-0.39576 0.63741-0.96137 1.11896-1.69682 1.44466-0.73547 0.32571-1.75111 0.49207-3.04692 0.49907l5.558 7.18651h-1.9122l-5.54749-7.18651h-0.88256v7.18651h-1.54447zm1.54447 1.51295v5.2533l2.65818 0.021c1.02964 1e-5 1.79136-0.0981 2.28518-0.29418 0.4938-0.19611 0.87904-0.50956 1.15573-0.94034 0.27666-0.43076 0.415-0.91231 0.41501-1.44466-1e-5 -0.51831-0.1401-0.98936-0.42027-1.41314-0.28018-0.42375-0.64791-0.72669-1.10319-0.90882-0.45529-0.1821-1.21177-0.27316-2.26943-0.27317z"/>
    <path id="path4111" d="m508.124 422.604c2.33945 2e-5 4.29718 0.78101 5.87319 2.34298 1.57597 1.56199 2.36396 3.4847 2.36398 5.76812-2e-5 2.26243-0.78626 4.18163-2.35873 5.75762-1.5725 1.57599-3.48996 2.36399-5.75237 2.36399-2.29044 0-4.22366-0.7845-5.79964-2.35348-1.57599-1.56899-2.36399-3.46718-2.36399-5.69458 0-1.48493 0.35898-2.86129 1.07693-4.1291 0.71795-1.26778 1.69681-2.26065 2.9366-2.97862 1.23977-0.71793 2.58111-1.07691 4.02403-1.07693zm0.0735 1.51296c-1.14172 1e-5 -2.2239 0.2977-3.24654 0.89306-1.02265 0.59538-1.82115 1.39739-2.3955 2.40601-0.57437 1.00864-0.86155 2.13285-0.86155 3.37262 0 1.83516 0.63565 3.38488 1.90695 4.64917 1.2713 1.2643 2.80351 1.89644 4.59664 1.89644 1.19774 0 2.30619-0.29068 3.32534-0.87205 1.01913-0.58136 1.81413-1.37636 2.385-2.385 0.57084-1.00862 0.85627-2.12933 0.85629-3.36211-2e-5 -1.22576-0.28545-2.3342-0.85629-3.32534-0.57087-0.99111-1.37463-1.78436-2.41127-2.37974-1.03666-0.59536-2.13635-0.89305-3.29907-0.89306z"/>
    <path id="path4113" d="m517.864 435.569 1.31333-0.78799c0.92458 1.70207 1.99275 2.5531 3.20451 2.5531 0.51832 0 1.00513-0.12082 1.46042-0.36248 0.45528-0.24165 0.802-0.5656 1.04016-0.97186 0.23814-0.40625 0.35721-0.83702 0.35722-1.29231-1e-5 -0.51832-0.17512-1.02614-0.52533-1.52346-0.48331-0.68642-1.36586-1.51294-2.64766-2.47955-1.28882-0.97361-2.09082-1.67755-2.40602-2.11183-0.54634-0.72845-0.81951-1.51644-0.81951-2.36399 0-0.67241 0.1611-1.28529 0.4833-1.83865 0.3222-0.55334 0.77574-0.98936 1.36061-1.30808 0.58486-0.31868 1.22051-0.47803 1.90695-0.47805 0.72845 2e-5 1.40963 0.18038 2.04353 0.54109 0.63389 0.36075 1.30456 1.02441 2.01201 1.99101l-1.26079 0.9561c-0.58137-0.77047-1.07693-1.27829-1.48668-1.52346-0.40977-0.24514-0.8563-0.36772-1.33959-0.36773-0.6234 1e-5 -1.13297 0.18913-1.52871 0.56735-0.39576 0.37826-0.59363 0.84405-0.59363 1.39738 0 0.33623 0.07 0.66193 0.21013 0.97712 0.14009 0.31521 0.39575 0.65842 0.76699 1.02964 0.20312 0.19614 0.86854 0.71096 1.99625 1.54447 1.33783 0.98763 2.25541 1.86668 2.75273 2.63716 0.4973 0.77049 0.74596 1.54448 0.74597 2.32196-1e-5 1.12071-0.42553 2.09432-1.27655 2.92084-0.85104 0.82652-1.88594 1.23978-3.1047 1.23978-0.9386 0-1.78963-0.25041-2.55311-0.75123-0.76348-0.50081-1.46742-1.33959-2.11183-2.51633z"/>
    <path id="path4115" d="m530.167 422.993h3.07843c1.7651 1e-5 2.95585 0.0771 3.57225 0.23114 0.88254 0.21716 1.60399 0.66369 2.16436 1.3396 0.56034 0.67593 0.84051 1.52522 0.84053 2.54785-2e-5 1.02965-0.27319 1.87894-0.81952 2.54785-0.54635 0.66893-1.29933 1.11896-2.25892 1.3501-0.70045 0.16811-2.01027 0.25216-3.92947 0.25216h-1.10319v7.18651h-1.54447zm1.54447 1.50244v5.2533l2.61614 0.0315c1.05766 1e-5 1.83165-0.0963 2.32196-0.28893 0.4903-0.19261 0.87554-0.5043 1.15573-0.93508 0.28016-0.43077 0.42025-0.91232 0.42026-1.44466-1e-5 -0.51832-0.1401-0.99286-0.42026-1.42365-0.28019-0.43076-0.64967-0.7372-1.10845-0.91933-0.4588-0.1821-1.21002-0.27315-2.25367-0.27317z"/>
    <path id="path4117" d="m542.922 422.993h8.85706v1.52346h-7.31259v4.83303h7.24955v1.51295h-7.24955v6.06231h7.24955v1.52346h-8.79402z"/>
    <path id="path4119" d="m554.553 422.993h3.07843c1.71608 1e-5 2.87881 0.0701 3.4882 0.21013 0.91756 0.21015 1.66353 0.66018 2.2379 1.3501 0.57435 0.68995 0.86153 1.53923 0.86155 2.54785-2e-5 0.84054-0.19789 1.5795-0.59363 2.21689-0.39576 0.63741-0.96136 1.11896-1.69681 1.44466-0.73548 0.32571-1.75111 0.49207-3.04692 0.49907l5.55799 7.18651h-1.9122l-5.54748-7.18651h-0.88256v7.18651h-1.54447zm1.54447 1.51295v5.2533l2.65817 0.021c1.02964 1e-5 1.79137-0.0981 2.28519-0.29418 0.4938-0.19611 0.87904-0.50956 1.15572-0.94034 0.27667-0.43076 0.415-0.91231 0.41501-1.44466-1e-5 -0.51831-0.14009-0.98936-0.42026-1.41314-0.28018-0.42375-0.64792-0.72669-1.10319-0.90882-0.4553-0.1821-1.21177-0.27316-2.26943-0.27317z"/>
    <path id="path4121" d="m567.318 422.993h1.54447v15.4552h-1.54447z"/>
    <path id="path4123" d="m570.88 424.495v-1.50244h8.47882v1.50244h-3.44616v13.9528h-1.57599v-13.9528z"/>
    <path id="path4125" d="m580.357 422.993h1.78612l3.95049 6.367 3.88744-6.367h1.78612l-4.89607 8.06907v7.38614h-1.52346v-7.38614z"/>
   </g>
   <g id="g3744" transform="matrix(1.17278 0 0 1.17278 -74.1858 -82.9778)">
    <g id="g3739" transform="matrix(.966706 0 0 .966706 13.7966 14.8073)" fill="#000000" fill-rule="evenodd">
     <path id="path3737" d="m445.515 455.451h1.03158v1.89674h-1.03158z"/>
     <path id="path3735" d="m445.561 442.862h1.03159v1.9944h-1.03159z"/>
     <path id="rect3706-4" d="m448.816 452.558-1.05906-0.17174c-0.21944 1.3739-0.7752 2.06085-1.66729 2.06085-0.48181 0-0.89923-0.20393-1.25226-0.61181-0.35301-0.40788-0.52952-0.93621-0.52952-1.585 0-0.61062 0.1622-1.10199 0.48659-1.47408 0.3244-0.3721 0.72274-0.55815 1.19502-0.55815 0.20035 0 0.44842 0.0477 0.74419 0.14311l-0.12165-1.13061-0.16458 0.0143c-0.51998 1e-5 -0.94217-0.1598-1.26657-0.47943-0.32438-0.31962-0.48658-0.74658-0.48659-1.28088 1e-5 -0.49136 0.13597-0.88611 0.40788-1.18428 0.27192-0.29815 0.60347-0.44722 0.99465-0.44723 0.4055 1e-5 0.74778 0.15624 1.02685 0.4687 0.27908 0.31247 0.45677 0.78595 0.5331 1.42041l1.0519-0.22898c-0.13357-0.89684-0.43411-1.57425-0.90163-2.03223-0.4675-0.45796-1.03281-0.68694-1.69591-0.68696-0.69649 2e-5 -1.28803 0.25762-1.77463 0.77282-0.48658 0.51523-0.72988 1.16401-0.72989 1.94637 1e-5 0.47706 0.10377 0.89925 0.31128 1.26657 0.20752 0.36733 0.49733 0.65595 0.86942 0.86585-0.34347 0.0954-0.62731 0.25284-0.85153 0.47227-0.2242 0.21945-0.40549 0.51284-0.54383 0.88017s-0.20752 0.77759-0.20752 1.23079c0 0.96363 0.28385 1.75196 0.85153 2.36497 0.56769 0.61301 1.24749 0.91952 2.03939 0.91952 0.73466 0 1.35721-0.26716 1.86765-0.80145 0.51044-0.5343 0.80145-1.25225 0.87301-2.15388z"/>
    </g>
   </g>
  </g>
  <g id="text3754" transform="translate(0 -30.0653)" fill="#000080">
   <path id="path4071" d="m377.781 277.603-3.40247 3.24624c-2.31463-2.44189-4.91856-3.66285-7.81181-3.66287-2.44192 2e-5 -4.49903 0.83328-6.17132 2.49978-1.67231 1.66653-2.50847 3.72075-2.50846 6.16264-1e-5 1.70125 0.37033 3.21153 1.11101 4.53085 0.74067 1.31933 1.78803 2.35512 3.14208 3.10736 1.35404 0.75225 2.85853 1.12838 4.51349 1.12837 1.4119 1e-5 2.70229-0.26328 3.87118-0.78986 1.16886-0.52656 2.45347-1.48423 3.85383-2.873l3.29832 3.43719c-1.88644 1.84012-3.66868 3.11604-5.34675 3.82778-1.67811 0.71175-3.59345 1.06762-5.74602 1.06762-3.96956 0-7.21869-1.25857-9.74739-3.77571-2.52872-2.51713-3.79307-5.74311-3.79307-9.67796 0-2.54605 0.57576-4.80858 1.72728-6.78759 1.15151-1.97897 2.80067-3.57026 4.94747-4.77388 2.14679-1.20357 4.45851-1.80537 6.93515-1.80539 2.10628 2e-5 4.13445 0.44559 6.08453 1.33668 1.95003 0.89115 3.63102 2.1584 5.04295 3.80175z"/>
   <path id="path4073" d="m382.016 273.106h4.86068v20.9009h7.0827v4.635h-11.9434z"/>
   <path id="path4075" d="m397.657 273.106h13.9397v4.75652h-9.11378v4.61765h9.11378v4.66972h-9.11378v6.71815h9.11378v4.77388h-13.9397z"/>
   <path id="path4077" d="m414.166 273.106h4.99956l6.42304 18.1408 6.50984-18.1408h4.99955l-9.20057 25.5359h-4.68708z"/>
   <path id="path4079" d="m441.056 273.106h13.9397v4.75652h-9.11377v4.61765h9.11377v4.66972h-9.11377v6.71815h9.11377v4.77388h-13.9397z"/>
   <path id="path4081" d="m459.509 273.106h4.86067v20.9009h7.08271v4.635h-11.9434z"/>
   <path id="path4083" d="m482.91 273.106h4.93012l9.82551 25.5359h-5.05163l-1.99635-5.25995h-10.4157l-2.08315 5.25995h-5.05163zm2.49978 6.77023-3.40247 8.76658h6.78759z"/>
   <path id="path4085" d="m501.467 273.106h4.65236l10.9539 16.8041v-16.8041h4.86068v25.5359h-4.66973l-10.9365-16.752v16.752h-4.86068z"/>
   <path id="path4087" d="m527.785 273.106h5.76337c3.71494 3e-5 6.47511 0.46006 8.28052 1.38009 1.80537 0.92008 3.29251 2.41589 4.4614 4.48745 1.16886 2.07159 1.7533 4.49035 1.75332 7.25629-2e-5 1.96743-0.32696 3.77572-0.98082 5.42487-0.65389 1.64916-1.55659 3.01767-2.70809 4.10554-1.15153 1.08786-2.39853 1.84011-3.74098 2.25674-1.34249 0.41663-3.66867 0.62494-6.97855 0.62494h-5.85017zm4.84332 4.68708v16.0923h2.25674c2.22201 1e-5 3.83356-0.2546 4.83464-0.76382 1.00105-0.50921 1.81984-1.36561 2.45638-2.56921 0.6365-1.20359 0.95475-2.68494 0.95477-4.44405-2e-5 -2.70808-0.75805-4.80859-2.2741-6.30153-1.36563-1.34245-3.55872-2.01368-6.57928-2.01371z"/>
  </g>
 </g>
 <g id="layer3" transform="translate(-.556019 -1.13337)">
  <path id="path3752" d="m355.048 277.358h192.213c-0.7074 62.0447-27.4742 112.066-96.8564 142.642-82.2951-33.5058-98.8414-85.2896-95.357-142.642z" fill="none" stroke="#eb2d2e" stroke-width="6"/>
  <path id="path3760-8-8-2" d="m451.067 234.583-96.4497 0.10782 0.3815-19.9214c-0.20728-6.66549 1.27055-16.6808 8.9112-18.6324 25.3507-6.20721 24.7306-10.9413 31.1753-16.9718 31.9366 19.515 40.8363 14.9916 55.9817 16.9855 27.811 0.25246 36.9939-8.97518 52.0048-17.0052 8.02541 7.61122 13.0436 13.2112 35.1523 16.1764 6.95848 1.40788 9.13627 12.7019 8.9112 19.4278l0.3815 19.9215-96.4498-0.0881z" fill="none" stroke="#000080" stroke-width="6"/>
  <g id="g3717" transform="matrix(1.07363 0 0 1.07363 -33.5408 -59.0618)">
   <path id="path2890-1" d="m444.148 419.822c-0.85435-0.0464-3.19994 1.90677-4.79991 2.86016-0.9631 0.59248-1.90216 3.32167 0.63367 5.95905 2.2788 2.2752 6.11272 3.89976 3.88819 8.05921l-1.03117 2.72096-0.95237-2.17135-3.25763 0.49149 2.55995-2.40595c2.03847-2.23533-1.5478-4.58399-3.11015-5.83651-5.72069-4.29491-3.82807-6.31862-0.86223-8.01349l5.8991-2.74581c0.16418-0.22551 1.56366-0.84167 0.0296-1.30975-4.97009-1.51662-5.97193-2.14176-7.94292-3.49516-3.33295-2.65326-2.93369-6.16347-0.99288-8.38836 3.8218-2.90128 5.51238-2.82679 8.43935-1.99723 4.60114 2.07993 5.64537 6.58822 7.23704 11.3786 1.5917-4.60182 2.63595-9.11012 7.23707-11.19 2.92699-0.82958 4.61755-0.90408 8.43934 1.99721 1.94083 2.22488 2.34009 5.7351-0.99288 8.38836-1.97096 1.35341-2.97284 1.97851-7.94288 3.49518-1.53393 0.46806-0.13441 1.08424 0.0296 1.30974l5.89915 2.74579c2.96581 1.69488 4.85843 3.71859-0.86223 8.01351-1.56238 1.25252-5.14864 3.60118-3.11017 5.8365l2.55996 2.40595-3.25765-0.49148-0.95237 2.17135-1.03115-2.72095c-2.22455-4.15947 1.60938-5.784 3.88819-8.05923 2.53581-2.63738 1.59678-5.36657 0.63367-5.95905-1.59999-0.95338-3.94558-2.90666-4.79994-2.86015-3.80812 0.55024-7.66276 0.49754-11.4756-0.18857zm8.13469-4.69983c1.08285-0.0398 2.21842 0.17436 3.41828 0.69916 2.71525-0.50341 5.34193-1.18165 6.75858-2.99597 2.66012-3.66051 1.9386-5.45813 0.37233-6.69072-1.44793-0.99779-2.89587-1.33645-4.34381-0.2996-3.8001 2.69762-4.54576 6.09744-6.20538 9.28713zm-4.79371-0.18856c-1.08288-0.04-2.21844 0.17436-3.4183 0.69916-2.71526-0.50341-5.34192-1.18166-6.75857-2.99599-2.66013-3.66052-1.9386-5.45811-0.37233-6.69071 1.44795-0.9978 2.89586-1.33646 4.34379-0.29958 3.80013 2.6976 4.54576 6.09743 6.20541 9.28712z" fill="#eb2d2e" fill-rule="evenodd"/>
   <g id="g3823" transform="matrix(.853718 0 0 .853718 66.7914 50.3949)">
    <path id="path2978-4-5" d="m460.164 420.094c3.13474-2.43382 6.51687-4.47839 10.1282-6.13611-2.5221 2.12834-5.63943 4.58516-9.53204 6.44172l-16.8418 17.3059-0.48296-0.13497 16.3176-16.9888 0.41102-0.48774v1e-5zm14.4326 2.78821c-4.46768 0.19054-10.1002 0.0635-15.4676-1.56127 9e-3 -5.31873 0.6022-9.99262 1.26317-13.1731 0.50474 2.85115 0.85755 6.10922-0.0832 12.0607 5.23882 0.54394 10.0192 1.54935 14.2876 2.67374zm-7.07552-6.07017c5.66324-4.8949 10.156-2.63498 15.0296-2.7031-4.98554 1.90489-9.916 6.08017-15.0296 2.7031zm-2.72537-1.89823c2.04022-5.57637 5.87591-6.07464 9.1274-8.22522-2.6638 3.3727-4.47115 8.17243-9.1274 8.22522zm6.77929-2.37975c3.8917-4.30442 7.61058-3.1828 11.3857-3.82669-3.67315 2.01388-7.07016 5.69766-11.3857 3.82669zm12.2641-4.02127c4.02163-5.25145 8.18912-4.29056 12.3092-5.35101-3.92278 2.61648-7.43776 7.11652-12.3092 5.35101zm-3.8467-1.04985c2.03816-5.57719 5.87367-6.07708 9.12438-8.22903-2.66257 3.37381-4.46814 8.1743-9.12438 8.22903zm-9.869-81.7979c-5.53848 0.87019-7.84513-2.44577-11.2034-4.39965 4.05887 0.80191 8.85142 0.10048 11.2034 4.39965zm17.2784 78.2022c2.00568-6.31688 6.716-6.37844 10.5463-8.47537-2.9864 3.62376-4.77635 9.05379-10.5463 8.47537zm10.1012-5.45392c2.63368-6.75149 6.18262-7.58221 9.43376-10.3395-2.88977 4.17244-5.20313 9.98686-9.43376 10.3395zm-4.43841-2.7054c0.30705-6.61803 3.91479-8.24003 6.44856-11.4876-1.58694 4.40605-1.90147 10.1168-6.44856 11.4876zm12.5099-11.0109c-1.1511-7.98428 1.79997-10.6826 3.41628-15.1008-0.49908 5.60585 0.4488 12.506-3.41628 15.1008zm-5.14252 5.39026c-1.37221-6.84222 1.50217-9.27761 2.99479-13.1469-0.34307 4.85216 0.79594 10.7671-2.99479 13.1469zm-0.25035-7.4081c-3.02243-6.20623-0.85631-9.37109-0.37845-13.5256 0.87451 4.77525 3.44179 10.1538 0.37845 13.5256zm4.33441-6.22693c-4.68098-5.79979-2.6788-11.5894-2.85117-17.3823 1.88387 5.57087 5.8789 10.6369 2.85117 17.3823zm-4.17816-11.4458c-5.73327-3.36994-5.57239-7.28858-7.32936-11.0287 3.20408 3.45404 8.12944 6.40545 7.32936 11.0287zm7.04331 1.03609c-4.35897-5.63713-3.39362-9.38367-4.16071-13.7453 2.10613 4.6786 5.83904 9.57611 4.16071 13.7453zm-4.83883-8.24703c-6.84168-2.41842-7.74948-5.67097-10.588-8.65209 4.254 2.65108 10.147 4.77532 10.588 8.65209zm0.17145-6.84063c-5.81556-3.36981-6.13225-8.49169-8.23815-13.0435 3.43788 3.92492 8.44065 6.89313 8.23815 13.0435zm-7.49208-2.03018c-6.36308-1.62437-7.17861-5.44857-9.79921-8.55698 3.94513 2.42239 9.4255 3.8722 9.79921 8.55698zm-1.35323-6.6517c-6.20976-0.61653-7.36194-5.5026-10.1598-8.99946 3.98956 2.2636 9.34285 2.86209 10.1598 8.99946zm-10.0338-6.72524c-5.69807 0.35536-7.36344-3.87414-10.341-6.61184 3.89881 1.45284 8.81953 1.20675 10.341 6.61184zm1.72975-2.671c-5.24273-2.35469-5.86238-5.49058-7.98631-8.37225 3.23007 2.5691 7.74478 4.63688 7.98631 8.37225zm-6.45795-3.40458c-6.17633-0.50379-7.59644-4.40472-10.5641-7.20029 4.07535 1.81377 9.40369 2.30152 10.5641 7.20029zm-5.20007-6.30131c-5.65425-0.64273-7.09061-3.45561-9.89939-5.56236 3.7842 1.46716 8.66405 2.05903 9.89939 5.56236zm-7.73258-2.82819c-5.35617 1.74076-8.09776-1.17182-11.6901-2.57031 4.12519 0.14792 8.76715-1.30731 11.6901 2.57031zm-29.1147 99.3035c-3.13474-2.43382-6.51687-4.47839-10.1282-6.13611 2.5221 2.12834 5.63943 4.58516 9.53204 6.44172l17.698 17.7816 0.38783-0.32523-17.0786-17.2742-0.41102-0.48774v1e-5zm-14.4326 2.78821c5.57466-0.0309 10.0115-0.0235 15.374-1.64731-9e-3 -5.31873 0.0153-9.25163-0.64567-12.4322-0.50474 2.85115-1.38151 5.45427-0.44076 11.4057-5.23882 0.54394-10.0192 1.54935-14.2876 2.67374zm7.07552-6.07017c-5.66324-4.8949-10.156-2.63498-15.0296-2.7031 4.98554 1.90489 9.916 6.08017 15.0296 2.7031zm2.72537-1.89823c-2.04022-5.57637-5.87591-6.07464-9.1274-8.22522 2.6638 3.3727 4.47115 8.17243 9.1274 8.22522zm-6.77929-2.37975c-3.8917-4.30442-7.61058-3.1828-11.3857-3.82669 3.67315 2.01388 7.07016 5.69766 11.3857 3.82669zm-12.2641-4.02127c-4.02163-5.25145-8.18912-4.29056-12.3092-5.35101 3.92278 2.61648 7.43776 7.11652 12.3092 5.35101zm3.8467-1.04985c-2.03816-5.57719-5.87367-6.07708-9.12438-8.22903 2.66257 3.37381 4.46814 8.1743 9.12438 8.22903zm9.869-81.7979c5.53848 0.87019 7.84513-2.44577 11.2034-4.39965-4.05887 0.80191-8.85142 0.10048-11.2034 4.39965zm-17.2784 78.2022c-2.00568-6.31688-6.716-6.37844-10.5463-8.47537 2.9864 3.62376 4.77635 9.05379 10.5463 8.47537zm-10.1012-5.45392c-2.63368-6.75149-6.18262-7.58221-9.43376-10.3395 2.88977 4.17244 5.20313 9.98686 9.43376 10.3395zm4.43841-2.7054c-0.30705-6.61803-3.91479-8.24003-6.44856-11.4876 1.58694 4.40605 1.90147 10.1168 6.44856 11.4876zm-12.5099-11.0109c1.1511-7.98428-1.79997-10.6826-3.41628-15.1008 0.49908 5.60585-0.4488 12.506 3.41628 15.1008zm5.14252 5.39026c1.37221-6.84222-1.50217-9.27761-2.99479-13.1469 0.34307 4.85216-0.79594 10.7671 2.99479 13.1469zm0.25035-7.4081c3.02243-6.20623 0.85631-9.37109 0.37845-13.5256-0.87451 4.77525-3.44179 10.1538-0.37845 13.5256zm-4.33441-6.22693c4.68098-5.79979 2.6788-11.5894 2.85117-17.3823-1.88387 5.57087-5.8789 10.6369-2.85117 17.3823zm4.17816-11.4458c5.73327-3.36994 5.57239-7.28858 7.32936-11.0287-3.20408 3.45404-8.12944 6.40545-7.32936 11.0287zm-7.04331 1.03609c4.35897-5.63713 3.39362-9.38367 4.16071-13.7453-2.10613 4.6786-5.83904 9.57611-4.16071 13.7453zm4.83883-8.24703c6.84168-2.41842 7.74948-5.67097 10.588-8.65209-4.254 2.65108-10.147 4.77532-10.588 8.65209zm-0.17145-6.84063c5.81556-3.36981 6.13225-8.49169 8.23815-13.0435-3.43788 3.92492-8.44065 6.89313-8.23815 13.0435zm7.49208-2.03018c6.36308-1.62437 7.17861-5.44857 9.79921-8.55698-3.94513 2.42239-9.4255 3.8722-9.79921 8.55698zm1.35323-6.6517c6.20976-0.61653 7.36194-5.5026 10.1598-8.99946-3.98956 2.2636-9.34285 2.86209-10.1598 8.99946zm10.0338-6.72524c5.69807 0.35536 7.36344-3.87414 10.341-6.61184-3.89881 1.45284-8.81953 1.20675-10.341 6.61184zm-1.72975-2.671c5.24273-2.35469 5.86238-5.49058 7.98631-8.37225-3.23007 2.5691-7.74478 4.63688-7.98631 8.37225zm6.45795-3.40458c6.17633-0.50379 7.59644-4.40472 10.5641-7.20029-4.07535 1.81377-9.40369 2.30152-10.5641 7.20029zm5.20007-6.30131c5.65425-0.64273 7.09061-3.45561 9.89939-5.56236-3.7842 1.46716-8.66405 2.05903-9.89939 5.56236zm7.73258-2.82819c5.35617 1.74076 8.09776-1.17182 11.6901-2.57031-4.12519 0.14792-8.76715-1.30731-11.6901 2.57031z" fill="#048204"/>
   </g>
   <g id="text3819" fill="#eb2d2e">
    <path id="path4033" d="m422.493 377.533v-0.44804c0.7965-0.12168 1.34686-0.35953 1.65109-0.71353 0.30421-0.354 0.45632-1.08966 0.45633-2.20698v-11.931c-1e-5 -0.54205-0.0304-0.89052-0.0913-1.04541-0.0609-0.15486-0.20189-0.2323-0.42314-0.23231-0.0885 1e-5 -0.29316 0.0332-0.61397 0.0996-0.8297 0.16595-1.52111 0.25446-2.07423 0.2655v-0.39825c1.53769-0.43142 3.67829-1.69255 6.42181-3.7834h0.48123v17.0253c-1e-5 1.05094 0.12721 1.75895 0.38165 2.12401 0.25443 0.36507 0.80756 0.63057 1.65939 0.7965v0.44804z"/>
    <path id="path4035" d="m437.975 378.047 8.3633-16.793h-8.3633c-0.63057 1e-5 -1.10349 0.14383-1.41878 0.43144-0.31528 0.28764-0.67758 0.92373-1.08689 1.90829h-0.48122l1.64279-6.65413h0.43144c0.0332 0.28764 0.0996 0.47847 0.19912 0.57248 0.0996 0.0941 0.27103 0.14107 0.51441 0.14105h11.2506l-6.80348 20.3938z"/>
    <path id="path4037" d="m452.047 378.047v-0.44804c2.28995-0.37612 4.13463-1.45472 5.53405-3.2358 1.3994-1.78106 2.2208-4.06548 2.46418-6.85325-1.55983 0.7412-2.97583 1.11179-4.24802 1.11178-1.49345 1e-5 -2.74629-0.5144-3.75851-1.54322-1.01222-1.02881-1.51833-2.301-1.51833-3.81659 0-1.73681 0.64162-3.18047 1.92488-4.33099 1.28326-1.15049 2.88733-1.72574 4.81222-1.72576 2.14613 2e-5 3.88848 0.72738 5.22706 2.18209 1.33855 1.45474 2.00784 3.34367 2.00785 5.6668-1e-5 2.23464-0.5642 4.37525-1.69257 6.42181-1.12839 2.04658-2.6412 3.65342-4.53841 4.82052-1.89724 1.1671-3.9687 1.75065-6.2144 1.75065zm2.17379-15.565c0 1.33858 0.29039 2.40889 0.87118 3.21091 0.58078 0.80205 1.35792 1.20306 2.33144 1.20305 0.99562 1e-5 1.93593-0.37611 2.82095-1.12838 0.0885-0.53099 0.13274-1.03987 0.13275-1.52663-1e-5 -1.83637-0.2987-3.29663-0.89607-4.38078-0.59738-1.08411-1.39942-1.62617-2.4061-1.62619-0.78545 2e-5 -1.4575 0.41486-2.01616 1.24453-0.55866 0.82971-0.83799 1.83088-0.83799 3.00349z"/>
    <path id="path4039" d="m478.564 357.205v0.44803c-2.35634 0.36509-4.25633 1.49347-5.69999 3.38515-1.44367 1.89171-2.20975 4.12634-2.29825 6.70391 1.52663-0.74118 2.93157-1.11178 4.21484-1.11179 1.5045 1e-5 2.76563 0.51166 3.7834 1.53493 1.01774 1.0233 1.52662 2.28719 1.52663 3.7917-1e-5 1.74789-0.64164 3.19985-1.92488 4.35588-1.28327 1.15604-2.89841 1.73406-4.84541 1.73406-2.13508 0-3.86913-0.72737-5.20217-2.18209-1.33304-1.45473-1.99956-3.34366-1.99956-5.6668 0-2.32313 0.55866-4.48309 1.67598-6.4799 1.11732-1.99677 2.64671-3.58149 4.5882-4.75413 1.94147-1.17262 4.00187-1.75893 6.18121-1.75895zm-2.1738 15.5318c-1e-5 -1.21688-0.29317-2.25676-0.87947-3.11965-0.58633-0.86287-1.37177-1.29431-2.35633-1.29432-1.0067 1e-5 -1.94701 0.3872-2.82095 1.16157-0.0664 0.37614-0.0996 0.88502-0.0996 1.52664-1e-5 1.83639 0.29868 3.29664 0.89606 4.38077s1.38835 1.6262 2.37292 1.6262c0.7965 0 1.47685-0.41761 2.04105-1.25284 0.56418-0.83522 0.84627-1.84467 0.84628-3.02837z"/>
   </g>
   <path id="path3714" d="m446.03 415.106 7.71109 0.12573 0.48194 0.0629-2.73987 4.97633-0.94804 0.0732-1.25725 0.0209-0.33526 5e-3 -3.43641-5.20169 0.5238-0.0629v5.1e-4z" fill="#eb2d2e"/>
  </g>
 </g>
 <g id="layer5" transform="translate(-.556019 -1.13337)">
  <g id="g3873" transform="matrix(1.21114 0 0 1.21114 -132.736 -83.0719)" fill="#000080">
   <g id="g3891" transform="matrix(1.00943 0 0 1.14006 -2.97799 -35.8895)">
    <path id="path3863" d="m486.279 254.717 26.8978-9.4973 0.9628-1.95144 16.1383-6.64679 1.23387 2.28459-15.6751 6.25294-2.25661 0.48146-26.91 9.59116-0.39102-0.5147z"/>
    <path id="path3863-1" d="m530.72 254.406-24.8047-9.00309-0.9628-1.95144-16.1383-6.64679-1.28321 1.89145 15.8725 6.73345 1.91126 0.30673 25.0142 9.18431 0.39102-0.5147z"/>
   </g>
   <path id="path3889" d="m507.891 255.286 6.52297-0.039 0.0925-10.5186 1.63135-2.84392 0.12418-5.98973-10.1412 7e-3 0.0389 6.35496c0.60249 0.87221 0.78674 0.90794 1.8164 2.63451l-0.0852 10.3944v3.5e-4h-1e-5z"/>
   <g id="g3965" transform="matrix(1.36925 0 0 1.49572 -187.479 -126.826)">
    <path id="path3905" d="m509.081 254.397c-0.73458 1.18133-2.29539 0.99616-4.6795 0.30158-2.03156-0.59186-2.67008-2.58448-1.70624-4.27846s1.60727-1.40863 0.71819 0.15397c-0.88909 1.56261-0.42785 2.90348 1.38369 3.60428 1.67028 0.64615 3.03555 1.04233 3.92464-0.3977-1.30097 1.6057 1.84662-2.57067 0.35922 0.61633z" fill-rule="evenodd"/>
    <path id="path3863-0" d="m508.27 248.114 0.52577 0.25139-4.18743 6.4864c-0.70954 0.32466-0.82986 0.15832-0.5475-0.3436z"/>
   </g>
   <path id="path3932" d="m500.718 246.512 2.23093 1.30371 0.1239-2.85978z"/>
   <path id="path3743" d="m516.19 239.154c1.94741-4.56953-0.23286-4.96895-0.68685-3.235l0.493 9e-3c0.18181-0.26223 0.6707-0.56649 0.16726 2.2009l0.0266 1.0251z"/>
   <path id="path3802" d="m514.46 250.814-0.0493 1.23265c-0.37785 1.84076 0.88176 3.68152-1.13404 5.52228-0.38699 0.98848-1.10521 1.69836 0.29583 1.28196 2.95336-4.43783 0.67405-5.243 0.88751-8.03689z"/>
   <path id="path3740" d="m510.689 235.954c-0.68038-1.07864-1.62256-1.85945-3.60265-0.0523l0.73019-7.9e-4c0.69372-0.65249 1.71433-0.86618 2.35 0.0174"/>
   <path id="path3795-4-1" d="m505.986 254.905 2.32752 0.78955c4.38785 0.33043 8.84459-0.23891 11.1175-0.97263 7.22005-2.42693 11.9662 0.83658 9.04471-0.79778-3.67567-1.54345-6.65118 0.0153-9.56396-0.16194-2.59925 1.43202-5.14503 1.24702-7.77776 1.2447-3.12078 0.0796-1.98964-0.099-4.69067-0.43917z"/>
  </g>
 </g>
 <g id="layer4" transform="translate(-.556019 -1.13337)">
  <g id="g4000" transform="translate(0 -30.0653)">
   <path id="path3725" d="m414.027 240.792c0 7.51531-6.09237 13.6077-13.6077 13.6077s-13.6077-6.09237-13.6077-13.6077 6.09236-13.6077 13.6077-13.6077 13.6077 6.09236 13.6077 13.6077z" fill="#000080" fill-rule="evenodd"/>
   <path id="rect3749" d="m398.965 225.38h1.9346v1.885h-1.9346z" fill="#000080" fill-rule="evenodd"/>
   <path id="rect3749-0" d="m402.979 225.544 1.87715 0.46794-0.45594 1.82902-1.87716-0.46794z" fill="#000080" fill-rule="evenodd"/>
   <path id="rect3749-4" d="m406.972 226.764 1.68448 0.95146-0.92705 1.64127-1.68448-0.95146z" fill="#000080" fill-rule="evenodd"/>
   <path id="rect3749-8" d="m410.517 229.06 1.37637 1.35951-1.32467 1.34109-1.37636-1.35951z" fill="#000080" fill-rule="evenodd"/>
   <path id="rect3749-8-2" d="m413.12 232.153 0.98978 1.66222-1.61963 0.96441-0.98977-1.66222z" fill="#000080" fill-rule="evenodd"/>
   <path id="rect3749-8-5" d="m415.044 235.755 0.51457 1.8649-1.81711 0.5014-0.51457-1.8649z" fill="#000080" fill-rule="evenodd"/>
   <path id="rect3749-8-5-5" d="m415.849 239.66-0.037 1.93423-1.88466-0.0361 0.037-1.93423 1.88467 0.0361z" fill="#000080" fill-rule="evenodd"/>
   <path id="rect3749-8-5-7" d="m415.607 243.546-0.51086 1.86593-1.81812-0.49775 0.51085-1.86593z" fill="#000080" fill-rule="evenodd"/>
   <path id="rect3749-8-5-52" d="m414.388 247.336-0.90246 1.71121-1.66737-0.87931 0.90246-1.7112z" fill="#000080" fill-rule="evenodd"/>
   <path id="rect3749-8-5-6" d="m396.759 225.724 0.59423 1.84107-1.79389 0.57903-0.59423-1.84107z" fill="#000080" fill-rule="evenodd"/>
   <path id="rect3749-8-5-6-2" d="m392.999 227.235 1.03884 1.63201-1.59018 1.01225-1.03884-1.63201z" fill="#000080" fill-rule="evenodd"/>
   <path id="rect3749-8-5-6-1" d="m389.749 229.549 1.41675 1.31738-1.28362 1.38046-1.41674-1.31738z" fill="#000080" fill-rule="evenodd"/>
   <path id="rect3749-8-5-6-8" d="m387.293 232.48 1.7058 0.91263-0.88923 1.6621-1.7058-0.91263z" fill="#000080" fill-rule="evenodd"/>
   <path id="rect3749-8-5-6-7" d="m385.716 235.936 1.87359 0.48193-0.46955 1.82561-1.87359-0.48194z" fill="#000080" fill-rule="evenodd"/>
   <path id="rect3749-8-5-6-89" d="m384.942 239.98 1.93423-0.0373 0.0362 1.88467-1.93424 0.0373-0.0362-1.88468z" fill="#000080" fill-rule="evenodd"/>
   <path id="rect3749-8-5-6-89-7" d="m385.287 244.236 1.85882-0.53611 0.52228 1.81123-1.85882 0.53611z" fill="#000080" fill-rule="evenodd"/>
   <path id="rect3749-8-5-6-89-5" d="m386.698 248.049 1.63805-1.02929 1.00283 1.59615-1.63806 1.02928z" fill="#000080" fill-rule="evenodd"/>
   <path id="rect4029" d="m392.443 249.049h15.2406v9.38697l-7.35718 0.59999-3.45246-0.0493-2.55928-0.64938-1.7965-0.37083-0.0753-8.91752h3e-5v1e-4l3e-5 1e-5h1e-5z" fill="#000080" fill-rule="evenodd"/>
   <path id="path2927" d="m401.666 259.441-3.06055-0.1194v-12.5091c0.49735-7.0758-3.73693-6.84032-6.89496-7.21672l-0.27823-2.70299 16.9286 0.11942v5.49769c-4.0689-0.34375-6.98773-0.68458-6.79059 4.30251l0.0957 12.6286h-4e-5z" fill="#ffffff"/>
   <path id="path3701" d="m392.93 235.146 2.58479-1.9243 2.21921 3.53309-1.49097-6e-3c-1.31566-0.87047-1.84307-1.28981-3.31303-1.60242v-6e-5z" fill="#ffffff"/>
   <path id="path3701-7" d="m406.258 234.978-2.69425-1.76779-1.85568 3.57934 1.35986-7.1e-4c1.26179-0.94687 1.74122-1.41173 3.19007-1.81088z" fill="#ffffff"/>
   <path id="path3701-7-4" d="m404.919 247.758 2.15438-2.39639-3.77834-2.30209-0.44439 0.39723c0.74546 1.3903 1.89258 2.80874 2.06835 4.30125z" fill="#ffffff"/>
   <path id="path3701-7-4-0" d="m395.755 247.241-2.15438-2.3964 3.77834-2.30209 0.4444 0.39723c-0.74547 1.3903-1.89258 2.80874-2.06836 4.30126z" fill="#ffffff"/>
   <path id="path3795-4" d="m418.447 259.937c3.67567 1.54346-7.75543-1.75848-7.96597-1.75047l-0.63194 0.0244-8.22258 1.12061c-4.38785 0.1534-6.23873-0.55583-8.51166-1.28956 0 0-11.7129 4.29423-8.79137 1.80808 3.67567-1.54345 6.39783-2.16803 9.31061-2.34523 2.54389 1.70881 5.21283 1.54186 7.8834 1.35035l8.13507-0.98857c2.92361 0.17101 5.11877 0.52701 8.79444 2.07046z" fill="#000080"/>
   <path id="rect3821" d="m398.464 245.044 7.65158 4.70006c-0.76797 1.6508-1.25632 2.67358-2.99093 4.86919l-7.65158-4.70004c0.41592-2.04114 1.32711-3.936 2.99093-4.86921z" fill="#000080" fill-rule="evenodd"/>
   <path id="path3824" d="m408.476 258.258 1.50418-7.8374-0.59303 0.40385-1.00193 5.07307-1.05347-0.39073-0.0389 0.65922 1.03547 0.46188-0.30727 1.6375 0.30914-7e-3 0.14579-2.9e-4z" fill="#000080"/>
   <path id="rect3749-8-5-52-8" d="m412.251 250.616-1.26348 1.46501-1.42749-1.23107 1.26348-1.46501z" fill="#000080" fill-rule="evenodd"/>
   <path id="rect3749-8-5-52-2" d="m409.53 253.273-1.6876 0.94587-0.92166-1.64433 1.6876-0.94587z" fill="#000080" fill-rule="evenodd"/>
   <path id="rect3749-8-5-6-89-5-4" d="m389.073 251.367 1.33858-1.39672 1.36087 1.30438-1.3386 1.39671z" fill="#000080" fill-rule="evenodd"/>
  </g>
 </g>
</svg>
